<svg enable-background="new 0 0 491.52 491.52" viewBox="0 0 491.52 491.52" xmlns="http://www.w3.org/2000/svg">
<path fill="#FDCA40" d="m368.64 143.36v-143.36h-368.64v491.52h368.64v-184.32h122.88v-163.84zm-348.16-122.88h327.68v61.44h-327.68zm327.68 450.56h-327.68v-61.44h327.68zm0-81.92h-327.68v-286.72h327.68v40.96h-266.24v163.84h266.24zm122.88-102.4h-368.64v-122.88h368.64z"/>
<path fill="#FDCA40" d="m235.52 430.08h-102.4c-5.66 0-10.24 4.585-10.24 10.24s4.58 10.24 10.24 10.24h102.4c5.66 0 10.24-4.585 10.24-10.24s-4.58-10.24-10.24-10.24z"/>
<path fill="#DF2935" d="m133.12 40.96h61.44v20.48h-61.44z"/>
<path fill="#DF2935" d="m215.04 40.96h20.48v20.48h-20.48z"/>
<path fill="#3772FF" d="m204.43 213.67-10.24-17.74-20.11 11.611v-23.221h-20.48v23.221l-20.11-11.611-10.24 17.74 20.107 11.61-20.107 11.61 10.24 17.74 20.11-11.611v23.221h20.48v-23.221l20.11 11.611 10.24-17.74-20.108-11.61z"/>
<path fill="#3772FF" d="m327.31 213.67-10.24-17.74-20.11 11.611v-23.221h-20.48v23.221l-20.11-11.611-10.24 17.74 20.107 11.61-20.107 11.61 10.24 17.74 20.11-11.611v23.221h20.48v-23.221l20.11 11.611 10.24-17.74-20.107-11.61z"/>
<path fill="#3772FF" d="m450.19 213.67-10.24-17.74-20.11 11.611v-23.221h-20.48v23.221l-20.11-11.611-10.24 17.74 20.107 11.61-20.107 11.61 10.24 17.74 20.11-11.611v23.221h20.48v-23.221l20.11 11.611 10.24-17.74-20.107-11.61z"/>
</svg>